<svg width="774" height="767" viewBox="0 0 774 767" fill="none" xmlns="http://www.w3.org/2000/svg">
<path fill-rule="evenodd" clip-rule="evenodd" d="M771.246 427.124C772.628 413.827 773.337 400.331 773.337 386.668C773.337 173.117 600.22 0 386.668 0C173.117 0 0 173.117 0 386.668C0 491.743 41.9111 587.028 109.928 656.719C140.546 541.857 204.25 418.489 325.11 366.039C184.793 268.059 210.861 142.576 241.435 92.0822C267.718 139.89 348.282 245.82 460.278 287.075C592.223 335.678 641.038 435.334 661.42 483.68C380.687 440.633 384.748 633.396 458.34 766.707C464.14 765.62 469.894 764.404 475.599 763.061L519.482 754.616C577.612 743.429 636.82 738.844 695.98 740.948L749.01 742.834L746.72 707.333C743.018 649.947 745.624 592.328 754.491 535.51L765.82 462.922C767.951 452.265 769.645 441.45 770.88 430.496L771.469 426.722C771.469 426.722 771.394 426.859 771.246 427.124ZM527.788 373.944C527.788 384.487 519.241 393.034 508.698 393.034C498.155 393.034 489.608 384.487 489.608 373.944C489.608 363.401 498.155 354.854 508.698 354.854C519.241 354.854 527.788 363.401 527.788 373.944Z" fill="white"/>
</svg>
